<?xml version="1.0" encoding="UTF-8"?>
<svg id="Layer_1" xmlns="http://www.w3.org/2000/svg" width="640" height="70" version="1.1" viewBox="0 0 640 70">
  <!-- Generator: Adobe Illustrator 29.6.1, SVG Export Plug-In . SVG Version: 2.1.1 Build 9)  -->
  <rect x="0" y="0" width="640" height="70" rx="16.0315971" ry="16.0315971" fill="#abe1eb"/>
  <g>
    <path d="M36.1593701,41.5165157c0,.3496094.0268555.4301758.2416992.6455078l1.7744141,1.6938477v.0537109h-8.9257812v-.0537109l1.7744141-1.6938477c.2148438-.215332.2685547-.2958984.2685547-.6455078v-7.0170898h-6.2373047v7.0170898c0,.3496094.0268555.4301758.269043.6455078l1.7744141,1.6938477v.0537109h-8.953125v-.0537109l1.8012695-1.6938477c.215332-.215332.2421875-.2958984.2421875-.6455078v-14.1147461c0-.3496094-.0268555-.4301758-.2421875-.6455078l-1.8012695-1.6938477v-.0537109h8.953125v.0537109l-1.7744141,1.6938477c-.2421875.215332-.269043.2958984-.269043.6455078v6.5600586h6.2373047v-6.5600586c0-.3496094-.0268555-.4301758-.2685547-.6455078l-1.7744141-1.6938477v-.0537109h8.9257812v.0537109l-1.7744141,1.6938477c-.2148438.215332-.2416992.2958984-.2416992.6455078v14.1147461Z" fill="#004e78" stroke="#004e78" stroke-linejoin="round" stroke-width=".2"/>
    <path d="M40.2765576,37.2421017c0-4.5170898,2.8232422-6.855957,7.0712891-6.855957s7.0976562,2.3120117,7.0976562,6.8828125c0,4.5166016-2.8496094,6.855957-7.0976562,6.855957s-7.0712891-2.3125-7.0712891-6.8828125ZM45.1701123,37.2421017c0,5.1889648.8334961,6.3984375,2.1777344,6.3984375s2.1777344-1.1557617,2.1777344-6.371582c0-5.1889648-.8334961-6.3720703-2.1777344-6.3720703s-2.1777344,1.1289062-2.1777344,6.3452148Z" fill="#004e78" stroke="#004e78" stroke-linejoin="round" stroke-width=".2"/>
    <path d="M75.6081006,33.8006954c-.3222656.5375977-.4301758.7255859-.5913086,1.2094727l-3.0649414,8.8994141h-3.0112305l-2.5810547-7.4741211-2.5810547,7.4741211h-3.0380859l-3.4682617-10.2167969c-.215332-.6181641-.3227539-.9677734-.5649414-1.4248047l-.8334961-1.6132812v-.0537109h6.6948242v.0537109l-.9140625,1.5327148c-.1616211.2685547-.1884766.3496094-.0805664.671875l2.6616211,8.1464844,1.8549805-5.3769531-.6450195-1.9360352c-.215332-.6450195-.3227539-.940918-.5649414-1.4248047l-.8334961-1.6132812v-.0537109h6.6948242v.0537109l-.9140625,1.5327148c-.1611328.2685547-.1884766.3496094-.0805664.671875l2.6884766,8.1196289,2.043457-6.0493164c.1879883-.5107422.1342773-.5913086-.0810547-1.0214844l-1.559082-3.253418v-.0537109h4.5976562v.0537109l-1.8286133,3.1459961Z" fill="#004e78" stroke="#004e78" stroke-linejoin="round" stroke-width=".2"/>
    <path d="M97.9557569,33.1551876l-3.4145508,10.7543945h-3.7641602l-4.9741211-15.9433594c-.1342773-.4301758-.3222656-.7529297-.5375977-1.1025391l-1.1289062-1.8012695v-.0537109h7.9580078v.0537109l-1.2905273,1.8012695c-.1611328.215332-.1611328.3764648-.0537109.6992188l4.1132812,13.3354492,2.7963867-8.737793-1.2905273-4.1943359c-.1342773-.4301758-.269043-.6992188-.4570312-1.0214844l-1.0488281-1.8823242v-.0537109h7.8242188v.0537109l-1.2905273,1.8012695c-.1616211.2421875-.1884766.3764648-.0810547.6992188l4.0332031,13.3085937,3.5219727-11.3725586c.1342773-.4306641.1074219-.5649414-.1879883-.9682617l-2.4199219-3.4682617v-.0537109h6.3720703v.0537109l-2.5541992,3.4145508c-.3764648.4838867-.4838867.6186523-.6455078,1.15625l-4.4091797,14.2763672h-3.7641602l-3.3066406-10.7543945Z" fill="#004e78" stroke="#004e78" stroke-linejoin="round" stroke-width=".2"/>
    <path d="M117.8566358,36.6503048v.0537109c0,3.4951172,1.7744141,4.9204102,3.8447266,4.9204102,1.6132812,0,3.1992188-.6992188,4.0864258-2.4736328h.0537109c-.6987305,3.3876953-2.7958984,4.9741211-5.9414062,4.9741211-3.3876953,0-6.5874023-2.043457-6.5874023-6.7753906,0-4.9741211,3.1728516-6.9633789,6.7485352-6.9633789,2.8500977,0,5.8881836,1.3442383,5.8881836,5.6728516,0,.0805664,0,.2685547-.0268555.5913086h-8.065918ZM117.8566358,36.1664181h3.9521484c.0268555-.3496094.0268555-.6992187.0268555-.8066406,0-3.5219727-.7260742-4.4628906-1.828125-4.4628906-1.3442383,0-2.097168,1.3710938-2.1508789,5.2695312Z" fill="#004e78" stroke="#004e78" stroke-linejoin="round" stroke-width=".2"/>
    <path d="M149.7467725,31.8646603h-.0537109l-4.0869141-6.1835938c-.2148438-.3496094-.3764648-.4301758-.887207-.4301758h-.3764648c-3.0380859,0-4.0864258,3.6831055-4.0864258,9.2485352,0,5.6728516,1.1289062,9.1679687,4.1401367,9.1679687h.2958984c.5375977,0,.671875-.0805664.887207-.3759766l4.1137695-6.3452148h.0537109v6.7480469c-1.9091797.3496094-3.871582.484375-5.7270508.484375-6.4257812,0-9.3022461-3.8447266-9.3022461-9.6791992,0-5.9150391,3.2260742-9.7597656,9.1948242-9.7597656,1.9360352,0,3.8984375.1616211,5.8344727.5112305v6.6137695Z" fill="#004e78" stroke="#004e78" stroke-linejoin="round" stroke-width=".2"/>
    <path d="M164.3219678,36.7845822l-.1611328,3.8178711c-.0537109,1.0488281.1884766,1.5595703.7260742,1.5595703.3496094,0,.5913086-.1611328.7524414-.4838867h.0541992c0,.2416992-.0541992.6450195-.215332.9677734-.4301758.887207-1.3442383,1.4790039-2.6347656,1.4790039-1.5327148,0-2.8500977-.9145508-2.9306641-2.6083984-.5375977,1.5595703-1.9086914,2.6083984-3.65625,2.6083984-1.9628906,0-3.6567383-1.3178711-3.6567383-3.7910156,0-2.6621094,2.3125-4.0600586,4.5170898-4.0600586,1.1557617,0,2.1240234.215332,2.8496094.7260742l.0537109-2.8769531v-.1342773c0-1.8549805-.5644531-3.0917969-1.9624023-3.0917969-.5375977,0-.5644531.0268555-.7260742.3227539l-2.1777344,4.0327148h-.0537109l-1.6938477-3.8447266c1.8012695-.6455078,3.7104492-1.0214844,5.4311523-1.0214844,1.8012695,0,3.1992188.3222656,4.1669922,1.2363281.8603516.8066406,1.3447266,2.1240234,1.3447266,4.1943359,0,.269043-.0273438.887207-.0273438.9677734ZM156.7941358,39.8768673c0,1.4785156.6723633,2.2851562,1.5864258,2.2851562.5913086,0,1.1826172-.4033203,1.5322266-.940918v-.0268555l.0537109-3.925293c-.3222656-.1079102-.6450195-.1616211-.9946289-.1616211-1.3979492,0-2.1777344,1.2099609-2.1777344,2.7695312Z" fill="#004e78" stroke="#004e78" stroke-linejoin="round" stroke-width=".2"/>
    <path d="M190.2160108,41.973547c0,.3496094.0268555.4306641.269043.6455078l1.3173828,1.2368164v.0537109h-7.5283203v-.0537109l1.2636719-1.2368164c.215332-.2148438.269043-.3227539.269043-.6181641,0-.4301758.0805664-4.0332031.0805664-5.3237305,0-2.4194336-.3764648-4.0595703-2.0703125-4.0595703-.8603516,0-1.5859375.4570312-2.1240234,1.1557617.1616211.6723633.2421875,1.425293.2421875,2.2856445,0,1.6669922-.0537109,3.7910156-.0805664,5.9145508,0,.3496094.0268555.4306641.2416992.6455078l1.3442383,1.2368164v.0537109h-7.5546875v-.0537109l1.2905273-1.2368164c.2148438-.2148438.2416992-.3227539.2416992-.6181641,0-.4033203.0805664-4.0332031.0805664-5.3237305,0-2.4467773-.3759766-4.0595703-2.0429688-4.0595703-.8603516,0-1.5058594.4838867-1.9897461,1.1831055v8.1728516c0,.3496094,0,.4306641.2421875.6455078l1.3173828,1.2368164v.0537109h-7.5283203v-.0537109l1.3173828-1.2368164c.2421875-.2148438.2421875-.2958984.2421875-.6455078v-9.3022461c0-.3496094-.0268555-.4301758-.2421875-.6723633l-1.3173828-1.3442383v-.0537109h5.96875v2.8500977c.6723633-1.8823242,2.097168-3.0649414,4.2749023-3.0649414,1.9897461,0,3.3339844,1.1020508,3.8984375,3.1723633.6186523-1.7744141,2.2314453-3.1723633,4.4902344-3.1723633,2.6616211,0,4.1669922,1.9624023,4.1669922,5.6728516,0,1.7744141-.0537109,3.7910156-.0805664,5.9145508Z" fill="#004e78" stroke="#004e78" stroke-linejoin="round" stroke-width=".2"/>
    <path d="M198.0446241,36.6503048v.0537109c0,3.4951172,1.7744141,4.9204102,3.8447266,4.9204102,1.6132812,0,3.1992188-.6992188,4.0864258-2.4736328h.0537109c-.6987305,3.3876953-2.7958984,4.9741211-5.9414062,4.9741211-3.3876953,0-6.5874023-2.043457-6.5874023-6.7753906,0-4.9741211,3.1728516-6.9633789,6.7485352-6.9633789,2.8500977,0,5.8881836,1.3442383,5.8881836,5.6728516,0,.0805664,0,.2685547-.0268555.5913086h-8.065918ZM198.0446241,36.1664181h3.9521484c.0268555-.3496094.0268555-.6992187.0268555-.8066406,0-3.5219727-.7260742-4.4628906-1.828125-4.4628906-1.3442383,0-2.097168,1.3710938-2.1508789,5.2695312Z" fill="#004e78" stroke="#004e78" stroke-linejoin="round" stroke-width=".2"/>
    <path d="M225.4181592,42.0277462l1.9897461,1.828125v.0537109h-9.4101562v-.0537109l1.9892578-1.828125c.2421875-.2421875.2958984-.2958984.2958984-.6992188v-15.7822266h-1.5322266c-.4301758,0-.5112305.0537109-.6992188.4301758l-3.3071289,6.2915039h-.0537109v-7.2592773h16.0239258v7.2592773h-.0537109l-3.3066406-6.2915039c-.1884766-.3764648-.269043-.4301758-.6992188-.4301758h-1.5327148v15.7822266c0,.4033203.0268555.4570312.2958984.6992188Z" fill="#004e78" stroke="#004e78" stroke-linejoin="round" stroke-width=".2"/>
    <path d="M232.8956983,37.2421017c0-4.5170898,2.8232422-6.855957,7.0712891-6.855957s7.0976562,2.3120117,7.0976562,6.8828125c0,4.5166016-2.8496094,6.855957-7.0976562,6.855957s-7.0712891-2.3125-7.0712891-6.8828125ZM237.789253,37.2421017c0,5.1889648.8334961,6.3984375,2.1777344,6.3984375s2.1777344-1.1557617,2.1777344-6.371582c0-5.1889648-.8334961-6.3720703-2.1777344-6.3720703s-2.1777344,1.1289062-2.1777344,6.3452148Z" fill="#004e78" stroke="#004e78" stroke-linejoin="round" stroke-width=".2"/>
    <path d="M262.4206006,41.5165157c0,.3496094.0268555.4301758.269043.6455078l1.7744141,1.6938477v.0537109h-8.953125v-.0537109l1.8012695-1.6938477c.215332-.215332.2421875-.2958984.2421875-.6455078v-14.1147461c0-.3496094-.0268555-.4301758-.2421875-.6455078l-1.8012695-1.6938477v-.0537109h8.953125v.0537109l-1.7744141,1.6938477c-.2421875.215332-.269043.2958984-.269043.6455078v14.1147461ZM273.0944287,42.3500118l1.559082,1.5058594v.0537109h-6.425293l-5.5927734-9.2216797,5.6196289-6.1035156c.2954102-.3222656.2685547-.4033203,0-.7792969l-2.043457-2.7426758v-.0537109h8.3344727v.0537109l-4.4628906,2.7963867c-.6992188.4301758-.8603516.5375977-1.3710938,1.0751953l-2.4736328,2.6079102,6.0493164,9.8134766c.2148438.3496094.4838867.6992188.8066406.9946289Z" fill="#004e78" stroke="#004e78" stroke-linejoin="round" stroke-width=".2"/>
    <path d="M290.1710889,41.973547c0,.3496094.0268555.4306641.2416992.6455078l1.3442383,1.2368164v.0537109h-7.5546875v-.0537109l1.2905273-1.2368164c.2148438-.2148438.2416992-.3227539.2416992-.6181641,0-.4033203.0805664-4.0332031.0805664-5.3237305,0-2.4467773-.3759766-4.0595703-2.0429688-4.0595703-.8603516,0-1.5058594.4838867-1.9897461,1.1831055v8.1728516c0,.3496094,0,.4306641.2421875.6455078l1.3173828,1.2368164v.0537109h-7.5283203v-.0537109l1.3173828-1.2368164c.2421875-.2148438.2421875-.2958984.2421875-.6455078v-9.3022461c0-.3496094-.0268555-.4301758-.2421875-.6723633l-1.3173828-1.3442383v-.0537109h5.96875v2.8500977c.6723633-1.8823242,2.097168-3.0649414,4.2749023-3.0649414,2.6884766,0,4.1943359,1.9624023,4.1943359,5.6728516,0,1.6669922-.0537109,3.7910156-.0805664,5.9145508Z" fill="#004e78" stroke="#004e78" stroke-linejoin="round" stroke-width=".2"/>
    <path d="M293.4806592,37.2421017c0-4.5170898,2.8232422-6.855957,7.0712891-6.855957s7.0976562,2.3120117,7.0976562,6.8828125c0,4.5166016-2.8496094,6.855957-7.0976562,6.855957s-7.0712891-2.3125-7.0712891-6.8828125ZM298.3742139,37.2421017c0,5.1889648.8334961,6.3984375,2.1777344,6.3984375s2.1777344-1.1557617,2.1777344-6.371582c0-5.1889648-.8334961-6.3720703-2.1777344-6.3720703s-2.1777344,1.1289062-2.1777344,6.3452148Z" fill="#004e78" stroke="#004e78" stroke-linejoin="round" stroke-width=".2"/>
    <path d="M328.8122022,33.8006954c-.3222656.5375977-.4301758.7255859-.5913086,1.2094727l-3.0649414,8.8994141h-3.0112305l-2.5810547-7.4741211-2.5810547,7.4741211h-3.0380859l-3.4682617-10.2167969c-.215332-.6181641-.3227539-.9677734-.5649414-1.4248047l-.8334961-1.6132812v-.0537109h6.6948242v.0537109l-.9140625,1.5327148c-.1616211.2685547-.1884766.3496094-.0805664.671875l2.6616211,8.1464844,1.8549805-5.3769531-.6450195-1.9360352c-.215332-.6450195-.3227539-.940918-.5649414-1.4248047l-.8334961-1.6132812v-.0537109h6.6948242v.0537109l-.9140625,1.5327148c-.1611328.2685547-.1884766.3496094-.0805664.671875l2.6884766,8.1196289,2.043457-6.0493164c.1879883-.5107422.1342773-.5913086-.0810547-1.0214844l-1.559082-3.253418v-.0537109h4.5976562v.0537109l-1.8286133,3.1459961Z" fill="#004e78" stroke="#004e78" stroke-linejoin="round" stroke-width=".2"/>
    <path d="M352.3693311,31.5150509h-.0537109l-3.4682617-5.5385742c-.2148438-.3496094-.3496094-.4301758-.7529297-.4301758h-2.769043c-.3764648,0-.4570312.0537109-.4570312.5380859v8.0922852h1.828125c.3227539-.0268555.4301758-.0537109.6992188-.3759766l2.4194336-2.7963867h.0541992v6.855957h-.0541992l-2.4194336-2.7963867c-.269043-.2954102-.3764648-.3491211-.7260742-.3491211h-1.8012695v8.1191406c0,.484375.0805664.5380859.4570312.5380859h3.0917969c.4570312,0,.6186523-.0537109.8066406-.3764648l3.3339844-5.699707h.0537109v6.6137695h-14.652832v-.0537109l1.8012695-1.6938477c.215332-.215332.2421875-.2958984.2421875-.6455078v-14.1147461c0-.3496094-.0268555-.4301758-.2421875-.6455078l-1.8012695-1.6938477v-.0537109h14.4106445v6.5063477Z" fill="#004e78" stroke="#004e78" stroke-linejoin="round" stroke-width=".2"/>
    <path d="M367.1867139,36.7845822l-.1611328,3.8178711c-.0537109,1.0488281.1879883,1.5595703.7260742,1.5595703.3496094,0,.5913086-.1611328.7529297-.4838867h.0537109c0,.2416992-.0537109.6450195-.215332.9677734-.4301758.887207-1.3442383,1.4790039-2.6347656,1.4790039-1.5327148,0-2.8500977-.9145508-2.9306641-2.6083984-.5375977,1.5595703-1.9086914,2.6083984-3.65625,2.6083984-1.9628906,0-3.6567383-1.3178711-3.6567383-3.7910156,0-2.6621094,2.3125-4.0600586,4.5170898-4.0600586,1.1557617,0,2.1240234.215332,2.8496094.7260742l.0537109-2.8769531v-.1342773c0-1.8549805-.5644531-3.0917969-1.9624023-3.0917969-.5375977,0-.5644531.0268555-.7260742.3227539l-2.1777344,4.0327148h-.0537109l-1.6938477-3.8447266c1.8012695-.6455078,3.7104492-1.0214844,5.4311523-1.0214844,1.8012695,0,3.1992188.3222656,4.1669922,1.2363281.8603516.8066406,1.3442383,2.1240234,1.3442383,4.1943359,0,.269043-.0268555.887207-.0268555.9677734ZM359.6588819,39.8768673c0,1.4785156.671875,2.2851562,1.5864258,2.2851562.5913086,0,1.1826172-.4033203,1.5322266-.940918v-.0268555l.0537109-3.925293c-.3222656-.1079102-.6450195-.1616211-.9946289-.1616211-1.3979492,0-2.1777344,1.2099609-2.1777344,2.7695312Z" fill="#004e78" stroke="#004e78" stroke-linejoin="round" stroke-width=".2"/>
    <path d="M380.1481397,35.4940548h-.0537109l-2.1240234-2.5268555c-.1342773-.1616211-.2958984-.269043-.4838867-.1347656-.4570312.3227539-.7529297.8066406-1.15625,1.5595703v7.2592773c0,.2954102.0268555.4301758.4033203.671875l2.6347656,1.5327148v.0537109h-9.0068359v-.0537109l1.3173828-1.2368164c.2421875-.2148438.2421875-.2958984.2421875-.6455078v-9.3022461c0-.3496094-.0268555-.4301758-.2421875-.6723633l-1.3173828-1.3442383v-.0537109h5.96875v3.4414062c.4570312-1.9086914,1.5864258-3.65625,3.4682617-3.65625.8066406,0,1.4248047.3491211,1.828125.887207l-1.4785156,4.2207031Z" fill="#004e78" stroke="#004e78" stroke-linejoin="round" stroke-width=".2"/>
    <path d="M391.7116162,31.1385861h-3.3071289v8.9799805c0,1.2099609.5375977,1.9091797,1.4248047,1.9091797.6992188,0,1.2636719-.4570312,1.5595703-.9951172l.0537109.0268555c-.269043,1.5058594-1.3710938,3.0654297-3.925293,3.0654297-2.3393555,0-3.4951172-1.2636719-3.4951172-3.6835938v-9.3027344h-1.4790039v-.5375977h1.2099609c.4301758,0,.5644531,0,.8334961-.2958984l3.7641602-4.2207031h.0537109v4.5166016h3.3071289v.5375977Z" fill="#004e78" stroke="#004e78" stroke-linejoin="round" stroke-width=".2"/>
    <path d="M407.1461866,41.973547c0,.3496094.0268555.4306641.2685547.6455078l1.3178711,1.2368164v.0537109h-7.5283203v-.0537109l1.2636719-1.2368164c.2421875-.2148438.269043-.3227539.269043-.6181641,0-.4033203.0805664-4.0332031.0805664-5.3237305,0-2.4467773-.4033203-4.0595703-2.043457-4.0595703-.9140625,0-1.5322266.5107422-2.0166016,1.2099609v8.1459961c0,.3496094.0268555.4306641.269043.6455078l1.3173828,1.2368164v.0537109h-7.527832v-.0537109l1.3173828-1.2368164c.2148438-.2148438.2416992-.2958984.2416992-.6455078v-15.0019531c0-.3496094-.0268555-.4570312-.2416992-.6723633l-1.3173828-1.2368164v-.0537109l5.9414062-.6992188v9.222168c.6723633-1.9360352,2.0703125-3.1455078,4.2749023-3.1455078,2.7158203,0,4.1943359,1.9624023,4.1943359,5.6728516,0,1.6669922-.0537109,3.7910156-.0805664,5.9145508Z" fill="#004e78" stroke="#004e78" stroke-linejoin="round" stroke-width=".2"/>
  </g>
  <g>
    <rect x="420.2470078" y="16.1471134" width="202.9091015" height="37.7057732" rx="9.9454147" ry="9.9454147" fill="#029bc2"/>
    <g>
      <path d="M442.7282178,29.6244259v11.050293h-1.9140625l-5.6035156-7.8286133v7.8286133h-1.9140625v-11.050293h1.9140625l5.6035156,7.8286133v-7.8286133h1.9140625Z" fill="#fff"/>
      <path d="M448.1110303,31.4296017v2.7080078h3.3613281v1.8056641h-3.3613281v2.9257812h4.2802734v1.8056641h-6.1953125v-11.050293h6.1953125v1.8051758h-4.2802734Z" fill="#fff"/>
      <path d="M460.9498975,35.1493282l4.1708984,5.5253906h-2.3193359l-3.0039062-3.984375-3.0195312,3.984375h-2.3183594l4.1708984-5.5253906-4.1708984-5.5249023h2.3183594l3.0195312,3.984375,3.0039062-3.984375h2.3193359l-4.1708984,5.5249023Z" fill="#fff"/>
      <path d="M473.9743116,31.4296017h-2.6152344v9.2451172h-1.9140625v-9.2451172h-2.6142578v-1.8051758h7.1435547v1.8051758Z" fill="#fff"/>
      <path d="M481.2711866,29.6244259h1.9140625v11.050293h-1.9140625v-11.050293Z" fill="#fff"/>
      <path d="M495.8844678,29.6244259v11.050293h-1.9140625l-5.6035156-7.8286133v7.8286133h-1.9140625v-11.050293h1.9140625l5.6035156,7.8286133v-7.8286133h1.9140625Z" fill="#fff"/>
      <path d="M510.3248975,31.4296017h-2.6152344v9.2451172h-1.9140625v-9.2451172h-2.6142578v-1.8051758h7.1435547v1.8051758Z" fill="#fff"/>
      <path d="M521.4206006,29.6244259v11.050293h-1.9296875v-4.5913086h-5.1826172v4.5913086h-1.9150391v-11.050293h1.9150391v4.6533203h5.1826172v-4.6533203h1.9296875Z" fill="#fff"/>
      <path d="M526.0719678,31.4296017v2.7080078h3.3613281v1.8056641h-3.3613281v2.9257812h4.2802734v1.8056641h-6.1953125v-11.050293h6.1953125v1.8051758h-4.2802734Z" fill="#fff"/>
      <path d="M539.8590772,37.3285275c.0625,1.1518555.8876953,1.6962891,1.8212891,1.6962891,1.0273438,0,1.5878906-.5288086,1.5878906-1.1826172,0-.887207-.8408203-1.3076172-2.1015625-1.9921875-2.2255859-1.2763672-2.9882812-2.0703125-2.9882812-3.5488281,0-1.6806641,1.4472656-2.8325195,3.2685547-2.8325195,2.0078125,0,3.3310547,1.4941406,3.3769531,3.3774414h-1.9140625c-.046875-.9804688-.6220703-1.5717773-1.4628906-1.5717773-.7314453,0-1.3544922.4355469-1.3544922,1.1049805,0,.840332.6386719,1.1669922,1.7587891,1.7583008,2.1015625,1.1362305,3.3310547,2.0859375,3.3310547,3.7666016,0,1.8676758-1.5722656,2.9262695-3.5019531,2.9262695-2.3193359,0-3.6884766-1.6811523-3.7353516-3.5019531h1.9140625Z" fill="#fff"/>
      <path d="M549.7868116,31.4296017v2.7080078h3.3613281v1.8056641h-3.3613281v2.9257812h4.2802734v1.8056641h-6.1953125v-11.050293h6.1953125v1.8051758h-4.2802734Z" fill="#fff"/>
      <path d="M560.6647412,37.2040157h-1.9453125v3.4707031h-1.9150391v-11.050293h4.15625c2.0078125,0,3.875,1.4316406,3.875,3.7973633,0,1.6811523-.9492188,2.8950195-2.2255859,3.4399414l2.3349609,3.8129883h-2.1640625l-2.1162109-3.4707031ZM558.7194287,35.3983517h2.2412109c1.0732422,0,1.9609375-.7470703,1.9609375-1.9765625,0-1.2451172-.8876953-1.9921875-1.9609375-1.9921875h-2.2412109v3.96875Z" fill="#fff"/>
      <path d="M567.4791944,29.6244259h1.9140625v11.050293h-1.9140625v-11.050293Z" fill="#fff"/>
      <path d="M574.4664991,31.4296017v2.7080078h3.3613281v1.8056641h-3.3613281v2.9257812h4.2802734v1.8056641h-6.1953125v-11.050293h6.1953125v1.8051758h-4.2802734Z" fill="#fff"/>
      <path d="M583.1334912,37.3285275c.0625,1.1518555.8876953,1.6962891,1.8212891,1.6962891,1.0273438,0,1.5878906-.5288086,1.5878906-1.1826172,0-.887207-.8408203-1.3076172-2.1015625-1.9921875-2.2255859-1.2763672-2.9882812-2.0703125-2.9882812-3.5488281,0-1.6806641,1.4472656-2.8325195,3.2685547-2.8325195,2.0078125,0,3.3310547,1.4941406,3.3769531,3.3774414h-1.9140625c-.046875-.9804688-.6220703-1.5717773-1.4628906-1.5717773-.7314453,0-1.3544922.4355469-1.3544922,1.1049805,0,.840332.6386719,1.1669922,1.7587891,1.7583008,2.1015625,1.1362305,3.3310547,2.0859375,3.3310547,3.7666016,0,1.8676758-1.5722656,2.9262695-3.5019531,2.9262695-2.3193359,0-3.6884766-1.6811523-3.7353516-3.5019531h1.9140625Z" fill="#fff"/>
    </g>
    <g>
      <line x1="596.3100049" y1="35" x2="612.3180616" y2="35" fill="none" stroke="#fff" stroke-miterlimit="10" stroke-width="1.3123028"/>
      <polygon points="607.9697492 40.3671086 607.0745923 39.4059518 611.8143994 35.0012822 607.0745923 30.5953212 607.9697492 29.6341643 613.7412488 35.0012822 607.9697492 40.3671086" fill="#fff"/>
    </g>
  </g>
</svg>